<svg t="1769697159910" class="icon" viewBox="0 0 1024 1024" version="1.1" xmlns="http://www.w3.org/2000/svg" p-id="3463" width="48" height="48"><path d="M128.032 523.68c-11.552 0-22.912-5.728-29.568-16.256a34.752 34.752 0 0 1 10.944-48.096l258.4-162.912a34.944 34.944 0 0 1 45.952 7.776l90.784 114.112 243.68-167.744a34.88 34.88 0 1 1 39.52 57.504l-270.368 186.144c-15.04 10.432-35.712 7.36-47.072-7.072l-91.584-115.136-232 146.24a34.784 34.784 0 0 1-18.624 5.408z m779.616 372.384H546.912v-139.68H896c19.232 0 34.912-15.648 34.912-34.912V116.352c0-19.232-15.648-34.912-34.912-34.912H128.064c-19.232 0-34.912 15.648-34.912 34.912v186.144a34.944 34.944 0 0 0 69.824 0V151.232h698.24v535.328H162.976V642.24a34.944 34.944 0 0 0-69.824 0v79.2c0 19.232 15.648 34.912 34.912 34.912h349.088v139.68H116.416a34.944 34.944 0 0 0 0 69.824h791.296a34.88 34.88 0 1 0 0-69.824z" p-id="3464"></path></svg>