<svg t="1782100738174" class="icon" viewBox="0 0 1024 1024" version="1.1" xmlns="http://www.w3.org/2000/svg" p-id="4819" width="32" height="32"><path d="M782.144 931.456a40.192 40.192 0 0 1-40.192-40.192v-172.352a41.216 41.216 0 0 1 40.192-40.256h55.68V545.344H190.336v132.736h55.68c21.952 0.64 39.616 18.304 40.256 40.256v171.712a41.216 41.216 0 0 1-40.256 40.256H74.304a40.192 40.192 0 0 1-40.192-40.256v-171.136a41.216 41.216 0 0 1 40.192-40.256h55.68V515.2c0-16.64 13.504-30.208 30.208-30.208H483.84V352.256H235.2a40.192 40.192 0 0 1-40.256-40.192V139.712a41.216 41.216 0 0 1 40.256-40.256h557.824c21.952 0.64 39.552 18.304 40.192 40.256v171.712a41.216 41.216 0 0 1-40.192 40.256H544.256v132.736h323.776a30.144 30.144 0 0 1 30.144 30.72v162.944h55.68c21.952 0.64 39.616 18.304 40.256 40.256v171.712a41.216 41.216 0 0 1-40.256 40.256l-171.712 1.152z m20.096-60.288h132.736v-132.736h-133.312l0.64 132.736z m-707.84 0H227.2v-132.736H93.824l0.64 132.736z m160.896-579.2h518.208V159.232H254.72l0.576 132.736zM428.8 931.456a41.216 41.216 0 0 1-40.192-40.192v-172.352a41.408 41.408 0 0 1 40.192-40.256h171.776c21.952 0.64 39.552 18.304 40.192 40.256v171.776a41.216 41.216 0 0 1-40.192 40.192l-171.776 0.64z m20.16-60.288h132.672v-132.736H447.744l1.216 132.736z" p-id="4820"></path></svg>